<svg xmlns="http://www.w3.org/2000/svg" viewBox="0 0 700 480"><defs><linearGradient id="p" x1="0" y1="0" x2="1" y2="1"><stop stop-color="#eef4ff"/><stop offset="1" stop-color="#dfe8f8"/></linearGradient><linearGradient id="b" x1="0" y1="0" x2="1" y2="1"><stop stop-color="#315efb"/><stop offset="1" stop-color="#173ab8"/></linearGradient></defs><rect width="700" height="480" rx="34" fill="url(#p)"/><ellipse cx="355" cy="388" rx="235" ry="34" fill="#b8c6db" opacity=".45"/><path d="M180 190l175-80 190 87-176 83z" fill="#fff" stroke="#c9d4e5" stroke-width="3"/><path d="M180 190v132l189 86V280z" fill="url(#b)"/><path d="M545 197v126l-176 91V280z" fill="#2346bf"/><path d="M180 190l175 86 190-79-190-87z" fill="#4b73ff"/><path d="M288 150l72 35 79-33-72-33z" fill="#dbe5ff"/><path d="M318 238h77v26h-77z" fill="#fff"/><path d="M335 246h43v10h-43z" fill="#315efb"/></svg>
